<?xml version="1.0" encoding="utf-8"?>
<svg width="598.5" height="68.025" viewBox="0 0 598.5 68.025" fill="none" xmlns="http://www.w3.org/2000/svg">
  <g id="SingleElement">
    <path id="Path" d="M119.1 16.1365C113.6 6.18408 102.9 0 91.2 0C91.2 0 3 0 3 0C1.29999 0 0 1.35278 0 2.99542C0 3.76837 0.299988 4.54144 0.900024 5.02454C0.900024 5.02454 20.1 23.6733 20.1 23.6733C21.8 25.316 24.1 26.2822 26.5 26.2822C26.5 26.2822 88.7 26.2822 88.7 26.2822C93.1 26.2822 96.8 29.6641 96.8 33.9156C96.8 38.1672 93.3 41.7424 88.9 41.7424C88.9 41.7424 46 41.7424 46 41.7424C44.3 41.7424 43 43.0951 43 44.7377C43 45.5107 43.3 46.2838 43.9 46.7669C43.9 46.7669 63 65.4156 63 65.4156C64.7 67.0583 67 68.0245 69.4 68.0245C69.4 68.0245 88.8 68.0245 88.8 68.0245C114.1 68.0245 133.2 41.9356 119.1 16.1365C119.1 16.1365 119.1 16.1365 119.1 16.1365Z" fill="#FF3008" />
    <path id="Shape" d="M10.7 9.27606L10.7 39.0367C10.7 39.0367 18.6 39.0367 18.6 39.0367C27 38.9401 33.7 32.2729 33.6 24.1564C33.6 24.1564 33.6 24.1564 33.6 24.1564C33.8 16.2331 27.3 9.56592 19.1 9.27606C18.9 9.27606 18.8 9.27606 18.6 9.27606C18.6 9.27606 10.7 9.27606 10.7 9.27606L10.7 9.27606ZM18.6 0C33.3 0 44.4 10.7255 44.4 24.1564C44.4 37.5874 33.3 48.4095 18.6 48.4095C18.6 48.4095 1.20001 48.4095 1.20001 48.4095C0.5 48.4095 0 47.8298 0 47.25C0 47.25 0 1.2561 0 1.2561C0 0.579712 0.599976 0.0966187 1.20001 0.0966187C1.20001 0.0966187 18.6 0 18.6 0C18.6 0 18.6 0 18.6 0Z" fill="#FF3008" transform="translate(150 10)" />
    <path id="Shape" d="M27.1 41.1626C36.2 41.1626 43.6 34.1089 43.6 25.316C43.6 16.523 36.2999 9.37268 27.2 9.37268C18.1 9.37268 10.7 16.4264 10.7 25.2194C10.7 25.2194 10.7 25.2194 10.7 25.2194C10.7 34.0123 18.1 41.0659 27.1 41.1626C27.1 41.1626 27.1 41.1626 27.1 41.1626ZM27.1 0C42.5 0 54.3 11.4985 54.3 25.2194C54.3 39.0368 42.5 50.4387 27.1 50.4387C11.7 50.4387 0 39.0368 0 25.2194C0 11.4019 11.8 0 27.1 0C27.1 0 27.1 0 27.1 0Z" fill="#FF3008" transform="translate(206 9)" />
    <path id="Shape" d="M27.2 41.1626C36.2999 41.1626 43.6 34.0123 43.6 25.2194C43.6 16.4264 36.2 9.37268 27.1 9.37268C18 9.37268 10.7 16.523 10.7 25.2194C10.7 34.0123 18.1 41.1626 27.2 41.1626C27.2 41.1626 27.2 41.1626 27.2 41.1626C27.2 41.1626 27.2 41.1626 27.2 41.1626ZM27.2 0C42.6 0 54.4 11.4019 54.4 25.2194C54.4 39.0368 42.5 50.4387 27.2 50.4387C11.9 50.4387 0 39.0368 0 25.2194C0 11.4019 11.8 0 27.2 0C27.2 0 27.2 0 27.2 0Z" fill="#FF3008" transform="translate(270 9)" />
    <path id="Shape" d="M21.7999 9.17944L10.7 9.17944L10.7 21.9341C10.7 21.9341 21.7999 21.9341 21.7999 21.9341C25.3999 22.1273 28.3999 19.4218 28.6 15.9432C28.6 15.8466 28.6 15.75 28.6 15.75C28.7 12.2715 25.8999 9.27606 22.2999 9.17944C22.1 9.17944 21.8999 9.17944 21.7999 9.17944C21.7999 9.17944 21.7999 9.17944 21.7999 9.17944ZM0 1.15955C0 0.483154 0.599976 0 1.19995 0C1.19995 0 22.1 0 22.1 0C32.1 0 39.3 7.05365 39.3 15.9432C39.4 21.9341 35.9 27.4417 30.4 30.1473C30.4 30.1473 40 46.5736 40 46.5736C40.4 47.1534 40.2001 47.8298 39.7001 48.2163C39.5 48.4095 39.2001 48.4095 38.9 48.4095C38.9 48.4095 30.4 48.4095 30.4 48.4095C29.9 48.4095 29.5 48.1197 29.3 47.7332C29.3 47.7332 20 31.4034 20 31.4034L10.7001 31.4034C10.7001 31.4034 10.7001 47.0568 10.7001 47.0568C10.7001 47.7332 10.1001 48.2163 9.5 48.2163C9.5 48.2163 1.40002 48.2163 1.40002 48.2163C0.700073 48.2163 0.200073 47.6365 0.200073 47.0568C0.200073 47.0568 0 1.15955 0 1.15955C0 1.15955 0 1.15955 0 1.15955Z" fill="#FF3008" transform="translate(338 10)" />
    <path id="Shape" d="M10.7 9.37274L10.7 39.1334C10.7 39.1334 18.6 39.1334 18.6 39.1334C27 39.0368 33.7 32.3696 33.6 24.2531C33.6 24.2531 33.6 24.2531 33.6 24.2531C33.7999 16.3298 27.3999 9.6626 19.1 9.37274C18.8999 9.37274 18.7 9.37274 18.6 9.37274C18.6 9.37274 10.7 9.37274 10.7 9.37274L10.7 9.37274ZM18.5 0C33.2001 0 44.3 10.7255 44.3 24.2531C44.3 37.7807 33.2 48.5062 18.5 48.5062C18.5 48.5062 1.19995 48.5062 1.19995 48.5062C0.5 48.5062 0 47.9264 0 47.3466C0 47.3466 0 1.2561 0 1.2561C0 0.579712 0.599976 0.0966187 1.19995 0.0966187C1.19995 0.0966187 18.5 0 18.5 0C18.5 0 18.5 0 18.5 0Z" fill="#FF3008" transform="translate(394 10)" />
    <path id="Shape" d="M24.8 11.9965L18.7001 27.9397L30.9001 27.9397L24.8 11.9965L24.8 11.9965ZM15.2001 36.8293C15.2001 36.8293 11.2001 47.4582 11.2001 47.4582C11 47.9413 10.5 48.3278 10 48.3278C10 48.3278 1.40002 48.3278 1.40002 48.3278C0.699951 48.4244 0.0999756 47.9413 0 47.2649C0 47.0717 0 46.8784 0.0999756 46.6851C0.0999756 46.6851 18.8 0.787903 18.8 0.787903C19 0.304749 19.5 -0.0817261 20 0.0148926C20 0.0148926 29.7001 0.0148926 29.7001 0.0148926C30.3 0.0148926 30.8 0.304749 30.9 0.787903C30.9 0.787903 49.6001 46.6851 49.6001 46.6851C49.9001 47.2649 49.6001 48.0379 49.0001 48.3278C48.8002 48.4244 48.6001 48.4244 48.4001 48.4244C48.4001 48.4244 39.8002 48.4244 39.8002 48.4244C39.2002 48.4244 38.7002 48.1346 38.6001 47.5548C38.6001 47.5548 34.6001 36.926 34.6001 36.926L15.2002 36.926L15.2002 36.8293L15.2001 36.8293Z" fill="#FF3008" transform="translate(448 10)" />
    <path id="Path" d="M1.38843 14.2073C1.38843 6.57385 8.18848 0.0032959 18.8885 0.0032959C24.6885 -0.0933228 30.1885 1.93579 34.4885 5.70422C34.9885 6.18732 34.9885 6.96033 34.5884 7.44348C34.5884 7.44348 34.5884 7.44348 34.4885 7.5401C34.4885 7.5401 29.6885 12.1781 29.6885 12.1781C29.1885 12.6613 28.3885 12.6613 27.8884 12.1781C27.8884 12.1781 27.8884 12.1781 27.8884 12.1781C25.5885 10.149 22.6885 9.08606 19.5885 8.9895C15.2886 8.9895 12.0885 11.4052 12.0885 14.2073C12.0885 23.1935 37.4885 17.9756 37.4885 35.2717C37.4885 44.0646 30.5885 50.6352 18.4885 50.6352C11.6885 50.7318 5.18848 48.2195 0.38855 43.5815C-0.11145 43.0984 -0.11145 42.3254 0.288574 41.8422C0.288574 41.8422 0.288574 41.8422 0.38855 41.7456C0.38855 41.7456 4.98853 37.3008 4.98853 37.3008C5.48853 36.8177 6.28857 36.8177 6.78857 37.3008C6.78857 37.3008 6.78857 37.3008 6.78857 37.3008C9.68848 40.0063 13.6885 41.5524 17.6885 41.649C23.0886 41.649 26.5886 38.8469 26.5886 35.3683C26.6885 26.3821 1.38843 31.5999 1.38843 14.2073C1.38843 14.2073 1.38843 14.2073 1.38843 14.2073Z" fill="#FF3008" transform="translate(506 9)" />
    <path id="Path" d="M32 1.15955L32 19.3251L10.5 19.3251C10.5 19.3251 10.5 1.15955 10.5 1.15955C10.5 0.483154 9.90002 0 9.30005 0C9.30005 0 1.19995 0 1.19995 0C0.5 0 0 0.579773 0 1.15955C0 1.15955 0 47.0568 0 47.0568C0 47.7332 0.599976 48.2163 1.19995 48.2163C1.19995 48.2163 9.30005 48.2163 9.30005 48.2163C10 48.2163 10.5 47.6365 10.5 47.0568C10.5 47.0568 10.5 28.6013 10.5 28.6013L32 28.6013C32 28.6013 32 47.0568 32 47.0568C32 47.7332 32.6 48.2163 33.2 48.2163C33.2 48.2163 41.3 48.2163 41.3 48.2163C42 48.2163 42.5 47.6365 42.5 47.0568C42.5 47.0568 42.5 1.15955 42.5 1.15955C42.5 0.483154 41.9 0 41.3 0C41.3 0 33.2 0 33.2 0C32.5 0 32 0.483154 32 1.15955C32 1.15955 32 1.15955 32 1.15955Z" fill="#FF3008" transform="translate(556 10)" />
  </g>
</svg>